PathFileType	4	(X/Y/Z)	11_2_32_p1_0-573.trc
DataRate	CameraRate	NumFrames	NumMarkers	Units	OrigDataRate	OrigDataStartFrame	OrigNumFrames
60.0	60.0	4	27	m	60.0	0	574
Frame#	Time	RHip			RKnee			RAnkle			RBigToe			RSmallToe			RHeel			LHip			LKnee			LAnkle			LBigToe			LSmallToe			LHeel			Neck			Head			Nose			RShoulder			RElbow			RWrist			RThumb			RIndex			RPinky			LShoulder			LElbow			LWrist			LThumb			LIndex			LPinky			
		X1	Y1	Z1	X2	Y2	Z2	X3	Y3	Z3	X4	Y4	Z4	X5	Y5	Z5	X6	Y6	Z6	X7	Y7	Z7	X8	Y8	Z8	X9	Y9	Z9	X10	Y10	Z10	X11	Y11	Z11	X12	Y12	Z12	X13	Y13	Z13	X14	Y14	Z14	X15	Y15	Z15	X16	Y16	Z16	X17	Y17	Z17	X18	Y18	Z18	X19	Y19	Z19	X20	Y20	Z20	X21	Y21	Z21	X22	Y22	Z22	X23	Y23	Z23	X24	Y24	Z24	X25	Y25	Z25	X26	Y26	Z26	X27	Y27	Z27	
0	0.0	0.3462095731150513	0.613576798444597	0.5868520110350741	0.3542212980651749	0.6619096042752111	1.041017499436268	0.3402278743950282	0.7850549221835722	1.484834431939271	0.3517029227019445	0.552723229559104	1.4668653059709533	0.405196532354344	0.6095460666846669	1.478795586035003	0.3229723645790513	0.8332312074882793	1.5278483291044462	0.15874096625124917	0.6084724863606911	0.5969240744905414	0.15948192247210846	0.6488962233166726	1.0226675037414508	0.16767381572263107	0.714067265029168	1.444243931252272	0.1971957939330122	0.5763907070739027	1.4744255232851764	0.13923578858398114	0.5841829692866484	1.4602522761019527	0.18382225375667144	0.7885279552317225	1.5045787960142651	0.23965671809392625	0.5609003963305008	0.09685012770885822	0.24176814174530337	0.4672236955161116	-0.13141843948358797	0.2298097189674289	0.3973019788873845	-0.011640856189686834	0.389627471832816	0.5261936697084326	0.16782625539038046	0.41484080910782256	0.532231270026562	0.43096293437484406	0.3305683545284401	0.4210260210791547	0.602125652994166	0.2533784438107417	0.3799743238854802	0.6701659641836029	0.246242217879299	0.37872943546324117	0.6754985193899554	0.25935447185745286	0.41766394294790044	0.7093431974134745	0.10585447655049189	0.5674925732332854	0.16998818272276942	0.09851978341321818	0.513909751131484	0.4136063115867374	0.17185002020005455	0.41573490721379514	0.5924074991924918	0.24788665049859332	0.3440730244740535	0.6305744651971221	0.24680873291136862	0.34448713439457335	0.657984788415461	0.2499845250898788	0.40395862192188775	0.6871329393183099
1	0.016666666666666666	0.3461452432487516	0.6136370493399683	0.5872974879848879	0.3529776839763755	0.6624469078865078	1.0454035803932615	0.34035318425772826	0.7850480555469386	1.4849783247230899	0.3490279555068379	0.5392880899013626	1.4602886343158041	0.40313869793412543	0.5955758557615976	1.4672905498009927	0.32309688729455044	0.8334800406106433	1.5280904452682118	0.15914918879775436	0.6075453218952108	0.6009625308633643	0.15961872209152267	0.6511868585584196	1.0321285406097767	0.16769332808361095	0.7141363270476152	1.4442213146543135	0.19684779665381402	0.5460457666281279	1.4581446806491258	0.13846676714572206	0.5819128189742228	1.4545458280308785	0.18367037309765444	0.7892176613813502	1.504938245950548	0.23958224750258889	0.5609396369819416	0.09684056411306223	0.24178971883548211	0.4671922774818457	-0.13139691721719438	0.2298691252085683	0.3971634198343355	-0.011684626109894	0.3896400141851266	0.5260747656477475	0.16781914783045399	0.4148452079241852	0.5321912620714603	0.4309990401029484	0.33063739294237093	0.420946212143986	0.6019201093235009	0.2533199646022355	0.38023882849130963	0.670595699117191	0.2485295855028758	0.3908789433503764	0.6788293440997719	0.25943503387070144	0.41784062967804886	0.709152588411997	0.10431409090641311	0.5557740201360584	0.16893032508783987	0.09842876856507758	0.5139813015742205	0.413632015331064	0.17384455873398452	0.42727096730498076	0.5951567333180251	0.24773711077466726	0.34324106031927953	0.6378368406558873	0.24603111917305834	0.34449072508903933	0.6618613254578015	0.2476019207066555	0.3928900896456717	0.6840385045921533
2	0.03333333333333333	0.3461215077185688	0.6136167961180047	0.5875049820450113	0.35307899630226075	0.6624881694260997	1.0454433036187663	0.3403290071882661	0.7852730288071585	1.485211839900524	0.34897417287049565	0.5392253319561595	1.4601902679796082	0.403030126369947	0.5957889219345099	1.4674429962849735	0.32424622886839094	0.835792876188541	1.533827297923686	0.15925532567923475	0.6076005089612162	0.601080273460561	0.1595109160654999	0.6489950152674556	1.0216659206304461	0.1676381655212872	0.7145020377141345	1.4442905168613642	0.1931273677349434	0.5741595529003413	1.4735543587704873	0.13835579081383037	0.5823534140819461	1.4549118951800137	0.18376808888362128	0.7901008133020279	1.5054082024706417	0.23958851957941324	0.5609096022229099	0.09687317089589138	0.24181304332648157	0.46713134033226233	-0.13135599504643933	0.2298675534857566	0.3971087308729084	-0.011677679112069876	0.38612607055828757	0.5245615046974732	0.16793417378232267	0.414781358522799	0.532057040417542	0.43107591789032584	0.3306388556956376	0.4208772209097744	0.6019854934163639	0.25328118246010084	0.3799814531240238	0.6704469489732906	0.2460813924026915	0.3784684830904684	0.6753805244408555	0.25941773846326366	0.4176018754411438	0.7090830783455594	0.10431765871130107	0.5556808136360076	0.1689284843062318	0.09844767532155412	0.5138085347812079	0.4135976256138926	0.173840299489963	0.4271602259851656	0.595047036822263	0.2474831959888858	0.3440497803001095	0.6344475328199204	0.24645064727373495	0.3451225743117797	0.6615622342222081	0.2503794473862436	0.4032028478211096	0.6903837982139109
3	0.05	0.34559311980731255	0.6136572247365386	0.5915481444409015	0.35300811729490883	0.662145638167411	1.0453603220153864	0.34025785195084535	0.7855114962825912	1.485459590421677	0.3491506851992299	0.5391720311864092	1.4599870248772642	0.4033031695628489	0.5951921990480062	1.46714522145138	0.3242098662383955	0.8360271156215655	1.5339101130052737	0.15866064912063182	0.606994686576634	0.605141744949063	0.15865988568238204	0.6494461564376738	1.0270032626049894	0.16766117169578082	0.7144051039202983	1.444389376513186	0.19377404217063	0.5601217656637583	1.4614341267977362	0.13827906946910412	0.5821827911279273	1.4550323870069133	0.1839250225086575	0.7900478115839014	1.5054565523509282	0.2395868787825355	0.561002648692564	0.09688973777247906	0.24199274524424372	0.4669611013427018	-0.1279401545389733	0.22986752645008032	0.39709818718812256	-0.011668741904149337	0.38612404202372036	0.5246106905430707	0.16792007842083528	0.4147993495589464	0.5321232273518902	0.4309903347684567	0.3306259369143726	0.4209760807771825	0.6019547318018786	0.2533366909001246	0.380163309051725	0.6703705866502645	0.2485447044283851	0.39075527517037906	0.6787373550340239	0.2594472669367139	0.4178063950177399	0.7091267848798236	0.10430855680030057	0.555653771923589	0.16890894314523108	0.09472794757056266	0.5112558393294535	0.41328206693131814	0.17190404970368947	0.4156603915847752	0.592404642535691	0.24949546714802365	0.3558372601241487	0.6374747417884425	0.24640236916575514	0.3456412689433468	0.661835548954468	0.25038231425245905	0.4030671230169374	0.690449686628504
